<?xml version="1.0" encoding="UTF-8" standalone="no"?>
<!-- Created with Inkscape (http://www.inkscape.org/) -->

<svg
   xmlns:dc="http://purl.org/dc/elements/1.1/"
   xmlns:cc="http://creativecommons.org/ns#"
   xmlns:rdf="http://www.w3.org/1999/02/22-rdf-syntax-ns#"
   xmlns:svg="http://www.w3.org/2000/svg"
   xmlns="http://www.w3.org/2000/svg"
   xmlns:sodipodi="http://sodipodi.sourceforge.net/DTD/sodipodi-0.dtd"
   xmlns:inkscape="http://www.inkscape.org/namespaces/inkscape"
   id="svg2"
   version="1.1"
   inkscape:version="0.91 r13725"
   xml:space="preserve"
   width="24"
   height="24"
   viewBox="0 0 24 24"
   sodipodi:docname="flat_only_outline.svg"
   inkscape:export-filename="/home/outadoc/dev/mobile/android-studio/SplatCompanion/app/src/main/ic_launcher-web.png"
   inkscape:export-xdpi="960"
   inkscape:export-ydpi="960"><sodipodi:namedview
     pagecolor="#ffffff"
     bordercolor="#666666"
     borderopacity="1"
     objecttolerance="10"
     gridtolerance="10"
     guidetolerance="10"
     inkscape:pageopacity="0"
     inkscape:pageshadow="2"
     inkscape:window-width="1920"
     inkscape:window-height="1017"
     id="namedview4"
     showgrid="false"
     inkscape:zoom="22.627418"
     inkscape:cx="22.042338"
     inkscape:cy="14.440364"
     inkscape:window-x="-8"
     inkscape:window-y="-8"
     inkscape:window-maximized="1"
     inkscape:current-layer="layer1"
     fit-margin-top="0"
     fit-margin-left="0"
     fit-margin-right="0"
     fit-margin-bottom="0"><inkscape:grid
       type="xygrid"
       id="grid9394" /></sodipodi:namedview><metadata
     id="metadata8"><rdf:RDF><cc:Work
         rdf:about=""><dc:format>image/svg+xml</dc:format><dc:type
           rdf:resource="http://purl.org/dc/dcmitype/StillImage" /><dc:title></dc:title><dc:creator><cc:Agent><dc:title>Arnaud Ma</dc:title></cc:Agent></dc:creator></cc:Work></rdf:RDF></metadata><defs
     id="defs6"><clipPath
       clipPathUnits="userSpaceOnUse"
       id="clipPath18"><path
         d="m 0,2904.262 2914.488,0 L 2914.488,0 0,0 0,2904.262 Z"
         id="path20"
         inkscape:connector-curvature="0" /></clipPath><clipPath
       clipPathUnits="userSpaceOnUse"
       id="clipPath30"><path
         d="m 252.073,1445.314 c 0,-670.208 543.31,-1213.518 1213.518,-1213.518 l 0,0 c 670.207,0 1213.517,543.31 1213.517,1213.518 l 0,0 c 0,670.207 -543.31,1213.517 -1213.517,1213.517 l 0,0 c -670.208,0 -1213.518,-543.31 -1213.518,-1213.517"
         id="path32"
         inkscape:connector-curvature="0" /></clipPath><clipPath
       clipPathUnits="userSpaceOnUse"
       id="clipPath38"><path
         d="m 615.023,2225.17 2784.647,0 0,-2662.938 -2784.647,0 0,2662.938 z"
         id="path40"
         inkscape:connector-curvature="0" /></clipPath><clipPath
       clipPathUnits="userSpaceOnUse"
       id="clipPath42"><path
         d="M 615.023,988.771 2041.211,-437.768 3399.667,920.124 2299.006,2020 l -396.896,0 0,-47.793 0,-26.535 -279.29,279.497 L 615.023,988.771 Z"
         id="path44"
         inkscape:connector-curvature="0" /></clipPath><clipPath
       clipPathUnits="userSpaceOnUse"
       id="clipPath46"><path
         d="m -32768,32767 65535,0 0,-65535 -65535,0 0,65535 z"
         id="path48"
         inkscape:connector-curvature="0" /></clipPath><linearGradient
       x1="0"
       y1="0"
       x2="1"
       y2="0"
       gradientUnits="userSpaceOnUse"
       gradientTransform="matrix(1188.8188,-1167.59,-1167.59,-1188.8188,1046.4271,1894.7318)"
       spreadMethod="pad"
       id="linearGradient50"><stop
         style="stop-opacity:1;stop-color:#ffffff"
         offset="0"
         id="stop52" /><stop
         style="stop-opacity:0;stop-color:#ffffff"
         offset="0.89796431"
         id="stop54" /><stop
         style="stop-opacity:0;stop-color:#ffffff"
         offset="1"
         id="stop56" /></linearGradient><mask
       maskUnits="userSpaceOnUse"
       x="0"
       y="0"
       width="1"
       height="1"
       id="mask58"><g
         id="g60"><g
           clip-path="url(#clipPath46)"
           id="g62"><g
             id="g64"><g
               id="g66"><path
                 d="m -32768,32767 65535,0 0,-65535 -65535,0 0,65535 z"
                 style="fill:url(#linearGradient50);stroke:none"
                 id="path68"
                 inkscape:connector-curvature="0" /></g></g></g></g></mask><linearGradient
       x1="0"
       y1="0"
       x2="1"
       y2="0"
       gradientUnits="userSpaceOnUse"
       gradientTransform="matrix(1188.8188,-1167.59,-1167.59,-1188.8188,1046.4271,1894.7318)"
       spreadMethod="pad"
       id="linearGradient70"><stop
         style="stop-opacity:1;stop-color:#0000ff"
         offset="0"
         id="stop72" /><stop
         style="stop-opacity:1;stop-color:#0000ff"
         offset="0.89796431"
         id="stop74" /><stop
         style="stop-opacity:1;stop-color:#0000ff"
         offset="1"
         id="stop76" /></linearGradient><mask
       maskUnits="userSpaceOnUse"
       id="mask4262"><rect
         style="fill:#ffffff;fill-opacity:1;stroke:none;stroke-width:111.06720734;stroke-miterlimit:4;stroke-dasharray:111.06720486, 222.13440972;stroke-dashoffset:1.46580005;stroke-opacity:1"
         id="rect4264"
         width="1372.4277"
         height="1995.6559"
         x="-1173.7377"
         y="-729.30969"
         ry="0" /></mask><clipPath
       id="clipPath5095"
       clipPathUnits="userSpaceOnUse"><g
         transform="matrix(0.01885345,0,0,-0.01885345,-3.6314375,51.24915)"
         id="g5097"
         clip-path="url(#clipPath18)"
         style="display:inline;filter:url(#filter5599)"><g
           id="g5099"
           transform="translate(2679.1086,1445.3134)"><path
             d="m 0,0 c 0,-670.207 -543.311,-1213.518 -1213.518,-1213.518 -670.207,0 -1213.518,543.311 -1213.518,1213.518 0,670.207 543.311,1213.518 1213.518,1213.518 C -543.311,1213.518 0,670.207 0,0"
             style="fill:#4aebc0;fill-opacity:1;fill-rule:nonzero;stroke:none"
             id="path5101"
             inkscape:connector-curvature="0" /></g></g></clipPath><clipPath
       id="clipPath5103"
       clipPathUnits="userSpaceOnUse"><g
         transform="matrix(1,0,0,-1,-2679.1086,1445.3134)"
         id="g5105"
         clip-path="url(#clipPath18)"
         style="display:inline;filter:url(#filter5599)"><g
           id="g5107"
           transform="translate(2679.1086,1445.3134)"><path
             d="m 0,0 c 0,-670.207 -543.311,-1213.518 -1213.518,-1213.518 -670.207,0 -1213.518,543.311 -1213.518,1213.518 0,670.207 543.311,1213.518 1213.518,1213.518 C -543.311,1213.518 0,670.207 0,0"
             style="fill:#4aebc0;fill-opacity:1;fill-rule:nonzero;stroke:none"
             id="path5109"
             inkscape:connector-curvature="0" /></g></g></clipPath><clipPath
       clipPathUnits="userSpaceOnUse"
       id="clipPath9374"><g
         transform="matrix(0.01885345,0,0,-0.01885345,-3.6314375,51.24915)"
         id="g9376"
         clip-path="url(#clipPath18)"
         style="display:inline;filter:url(#filter5599)"><g
           id="g9378"
           transform="translate(2679.1086,1445.3134)"><path
             d="m 0,0 c 0,-670.207 -543.311,-1213.518 -1213.518,-1213.518 -670.207,0 -1213.518,543.311 -1213.518,1213.518 0,670.207 543.311,1213.518 1213.518,1213.518 C -543.311,1213.518 0,670.207 0,0"
             style="fill:#4aebc0;fill-opacity:1;fill-rule:nonzero;stroke:none"
             id="path9380"
             inkscape:connector-curvature="0" /></g></g></clipPath><filter
       style="color-interpolation-filters:sRGB"
       inkscape:label="Drop Shadow"
       id="filter9382"><feFlood
         flood-opacity="0.498039"
         flood-color="rgb(0,0,0)"
         result="flood"
         id="feFlood9384" /><feComposite
         in="flood"
         in2="SourceGraphic"
         operator="in"
         result="composite1"
         id="feComposite9386" /><feGaussianBlur
         in="composite1"
         stdDeviation="7.1"
         result="blur"
         id="feGaussianBlur9388" /><feOffset
         dx="0"
         dy="-5.2"
         result="offset"
         id="feOffset9390" /><feComposite
         in="SourceGraphic"
         in2="offset"
         operator="over"
         result="composite2"
         id="feComposite9392" /></filter></defs><g
     inkscape:groupmode="layer"
     id="layer1"
     inkscape:label="zzz"
     style="display:inline"
     transform="translate(0,-24)"><path
       style="font-style:normal;font-variant:normal;font-weight:normal;font-stretch:normal;font-size:1060.81384277px;line-height:125%;font-family:'Bauhaus 93';-inkscape-font-specification:'Bauhaus 93, ';letter-spacing:0px;word-spacing:0px;fill:#ffffff;fill-opacity:1;stroke:none;stroke-width:1px;stroke-linecap:butt;stroke-linejoin:miter;stroke-opacity:1;filter:url(#filter5599)"
       d="m 20.150041,38.796182 -2.223666,4.093253 2.557943,0 0,2.652158 -6.983475,0 2.209133,-4.106785 -2.296335,0 0,-2.638626 6.7364,0 z"
       id="path9403"
       inkscape:connector-curvature="0" /><path
       style="font-style:normal;font-variant:normal;font-weight:normal;font-stretch:normal;font-size:1060.81384277px;line-height:125%;font-family:'Bauhaus 93';-inkscape-font-specification:'Bauhaus 93, ';letter-spacing:0px;word-spacing:0px;fill:#ffffff;fill-opacity:1;stroke:none;stroke-width:1px;stroke-linecap:butt;stroke-linejoin:miter;stroke-opacity:1;filter:url(#filter5599)"
       d="m 13.075508,27.386485 -3.3441998,6.107593 3.8469218,0 0,3.957317 -10.5025376,0 3.3223437,-6.127784 -3.4534889,0 0,-3.937126 10.1309608,0 z"
       id="path5513"
       inkscape:connector-curvature="0" /></g></svg>